<?xml version="1.0" encoding="UTF-8" standalone="no"?>
<svg width="512" height="512" viewBox="0 0 512 512" fill="none" xmlns="http://www.w3.org/2000/svg">
  <!-- Background Circle -->
  <circle cx="256" cy="256" r="248" fill="#1E293B" stroke="#334155" stroke-width="16"/>
  
  <!-- Timer Circle -->
  <circle cx="256" cy="256" r="200" fill="#0F172A" stroke="#3B82F6" stroke-width="12" stroke-dasharray="1256 1256" stroke-dashoffset="314" stroke-linecap="round"/>
  
  <!-- Tomato Shape (Pomodoro) -->
  <circle cx="256" cy="256" r="140" fill="#EF4444" />
  <path d="M256 116C200 116 156 160 156 216C156 272 200 316 256 316C312 316 356 272 356 216C356 160 312 116 256 116Z" fill="#DC2626" />
  
  <!-- Leaf -->
  <path d="M256 116C256 116 236 96 216 96C196 96 176 116 176 136C176 156 196 176 216 176C236 176 256 156 256 136V116Z" fill="#22C55E" />
  
  <!-- Clock Hands -->
  <line x1="256" y1="256" x2="256" y2="176" stroke="white" stroke-width="8" stroke-linecap="round" />
  <line x1="256" y1="256" x2="316" y2="256" stroke="white" stroke-width="8" stroke-linecap="round" />
  
  <!-- Center Dot -->
  <circle cx="256" cy="256" r="12" fill="white" />
</svg>
