<svg xmlns="http://www.w3.org/2000/svg" width="512" height="512" fill="none" viewBox="0 0 512 512"><circle cx="256" cy="256" r="248" fill="#1E293B" stroke="#334155" stroke-width="16"/><circle cx="256" cy="256" r="200" fill="#0F172A" stroke="#3B82F6" stroke-dasharray="1256 1256" stroke-dashoffset="314" stroke-linecap="round" stroke-width="12"/><circle cx="256" cy="256" r="140" fill="#EF4444"/><path fill="#DC2626" d="M256 116C200 116 156 160 156 216C156 272 200 316 256 316C312 316 356 272 356 216C356 160 312 116 256 116Z"/><path fill="#22C55E" d="M256 116C256 116 236 96 216 96C196 96 176 116 176 136C176 156 196 176 216 176C236 176 256 156 256 136V116Z"/><line x1="256" x2="256" y1="256" y2="176" stroke="#fff" stroke-linecap="round" stroke-width="8"/><line x1="256" x2="316" y1="256" y2="256" stroke="#fff" stroke-linecap="round" stroke-width="8"/><circle cx="256" cy="256" r="12" fill="#fff"/></svg>